<svg id="Layer_1" data-name="Layer 1" xmlns="http://www.w3.org/2000/svg" viewBox="0 0 270 169.13"><defs><style>.cls-1{fill:#fff;}</style></defs><path class="cls-1" d="M251,39.44C227.2,14.76,184.86,0,137.77,0,102.69,0,69.24,8.21,43.63,23.14,16.38,39,.9,60.69,0,84.19c-.61,16.24,5.94,32,19,45.48,23.8,24.71,66.13,39.46,113.23,39.46,35.1,0,68.52-8.21,94.14-23.14,27.24-15.87,42.73-37.55,43.59-61.05C270.59,68.7,264,53,251,39.44Zm12.55,45.28c-.78,21.2-15.14,41-40.4,55.7-24.65,14.38-56.94,22.29-90.91,22.29-45.38,0-86-14-108.59-37.5-1.09-1.13-2.12-2.26-3.1-3.42-.58-.66-1.14-1.36-1.69-2-.68-.88-1.36-1.77-2-2.65a57.59,57.59,0,0,1-6.27-11c-.66-1.49-1.21-3-1.72-4.56A49.08,49.08,0,0,1,6.46,84.41c.78-21.2,15.14-41,40.4-55.7C71.51,14.33,103.8,6.42,137.77,6.42c45.38,0,86,14,108.59,37.5C258.15,56.13,264.09,70.24,263.54,84.72Z"/><path class="cls-1" d="M137.77,10.37c-68.83,0-125.84,33.22-127.38,74.2H259.61C261.14,43.59,206.57,10.37,137.77,10.37ZM69.14,53h-11v3.74H66l0,6.38H58.09l0,10.19H49.26l.06-27H69.16ZM87.4,73.29H78.6l.06-27h8.8Zm28.43,0-5.14-7-4.3,7h-10l9.28-13.93L96,46.27h10.43l5,6.75,4.14-6.75h10l-9.11,13.66,9.81,13.36Zm66.42,0h-8.77l0-13.47-4.35,13.47h-7.54l-4.29-13.47,0,13.47h-8.81l.06-27h10.79l6.15,16.22,6.07-16.22h10.75Zm27.57-8.2,0,8.2H201l0-8.2L191,46.27h10.07l4.46,9.58L210,46.27h9.92Z"/><path class="cls-1" d="M80.29,112a10,10,0,0,0,7.82-10.14c0-7.75-5.93-11.59-15.17-11.59H49.31l-.1,44.6H73.5c10.08,0,15.59-4.41,15.61-12.22C89.12,117.68,86,113.34,80.29,112ZM63.82,101.37h5.63c2.62,0,3.86,1,3.85,3.21s-1.25,3.09-3.87,3.09H63.8Zm6.56,22.3H63.77v-6.3h6.61c2.62,0,3.86,1.07,3.86,3.21S73,123.67,70.38,123.67Z"/><path class="cls-1" d="M115.85,89.52c-13.16,0-23.92,9.45-23.95,22.87s10.68,22.93,23.84,22.93,23.79-9.51,23.82-22.93S129.07,89.52,115.85,89.52Zm-.08,32.76c-6,0-9.09-4-9.08-9.89s3.17-10,9.13-10,9,3.9,9,10S121.6,122.28,115.77,122.28Z"/><path class="cls-1" d="M170.93,90.28H154.17l-17.06,44.6h15.25l2.31-6.74h15.45l2.28,6.74h15.32Zm-12.7,27.34,4.22-12.41,4.16,12.41Z"/><path class="cls-1" d="M182.4,90.28l0,11.09h12.17l-.07,33.51H209l.08-33.51H221.4l0-11.09Z"/></svg>